<svg width="293" height="518" viewBox="0 0 293 518" fill="none" xmlns="http://www.w3.org/2000/svg">
<rect width="313" height="518" fill="black"/>
<mask id="mask0_2472_1263" style="mask-type:alpha" maskUnits="userSpaceOnUse" x="0" y="0" width="313" height="518">
<rect width="313" height="518" fill="black"/>
</mask>
<g mask="url(#mask0_2472_1263)">
<path d="M18.4267 541.263L183.256 258.506L348.086 541.263H18.4267Z" stroke="white"/>
<path d="M18.4267 399.392L183.256 116.635L348.086 399.392H18.4267Z" stroke="white"/>
<path d="M18.4267 257.52L183.256 -25.2371L348.086 257.52H18.4267Z" stroke="white"/>
<path d="M33.829 427C33.829 439.974 23.2083 450.5 10.0968 450.5C-3.01476 450.5 -13.6355 439.974 -13.6355 427C-13.6355 414.026 -3.01476 403.5 10.0968 403.5C23.2083 403.5 33.829 414.026 33.829 427Z" stroke="white"/>
<path d="M33.829 285C33.829 297.974 23.2083 308.5 10.0968 308.5C-3.01476 308.5 -13.6355 297.974 -13.6355 285C-13.6355 272.026 -3.01476 261.5 10.0968 261.5C23.2083 261.5 33.829 272.026 33.829 285Z" stroke="white"/>
</g>
</svg>
