<svg width="20" height="20" viewBox="0 0 20 20" fill="none" xmlns="http://www.w3.org/2000/svg">
<path fill-rule="evenodd" clip-rule="evenodd" d="M6.24667 2.5H13.7542C15.8225 2.5 17.5 4.17667 17.5 6.24667V13.7542C17.5 15.8225 15.8233 17.5 13.7533 17.5H6.24667C4.1775 17.5 2.5 15.8233 2.5 13.7533V6.24667C2.5 4.1775 4.17667 2.5 6.24667 2.5V2.5Z" stroke="#292A2C" stroke-width="1.5" stroke-linecap="round" stroke-linejoin="round"/>
<path d="M14.1243 5.59416C13.9693 5.59499 13.8434 5.72082 13.8434 5.87582C13.8434 6.03082 13.9701 6.15666 14.1251 6.15666C14.2801 6.15666 14.4059 6.03082 14.4059 5.87582C14.4068 5.71999 14.2801 5.59416 14.1243 5.59416" stroke="#292A2C" stroke-width="1.5" stroke-linecap="round" stroke-linejoin="round"/>
<path d="M12.1213 7.87868C13.2929 9.05026 13.2929 10.9497 12.1213 12.1213C10.9497 13.2929 9.05026 13.2929 7.87868 12.1213C6.70711 10.9497 6.70711 9.05026 7.87868 7.87868C9.05026 6.70711 10.9497 6.70711 12.1213 7.87868" stroke="#292A2C" stroke-width="1.5" stroke-linecap="round" stroke-linejoin="round"/>
</svg>
