<svg width="1440" height="739" viewBox="0 0 1440 739" fill="none" xmlns="http://www.w3.org/2000/svg">
<path d="M1583 550.727V640.748L1517.78 705.963L1452.57 640.748H1385.95V586.136L1421.36 550.727H1583Z" stroke="#131416" stroke-width="2"/>
<path d="M1297.93 453.305L1416.56 334.677H1484.38L1365.75 453.305H1297.93Z" stroke="#131416" stroke-width="2"/>
<path d="M217.083 323.675L139.465 246.057L300.703 84.8194V1H-143L-21.972 102.624V162.237L139.465 323.675V403.293L224.885 488.713V736.37L445.936 488.713V403.093L366.518 323.675H217.083Z" stroke="#131416" stroke-width="2"/>
<path d="M545.959 190.644L491.547 136.231L626.778 1H1484.18V136.231L1429.76 190.644H1303.34L1121.49 362.884H988.262L1070.08 283.866H726.601L633.38 190.644H545.959Z" stroke="#131416" stroke-width="2"/>
<path d="M990.021 454.424L924.342 359.883H718.898V454.424L805.03 542.374V736L1084.79 454.424H990.021Z" stroke="#131416" stroke-width="2"/>
<rect x="312" y="592" width="30" height="30" fill="#131416"/>
<rect x="420" y="438" width="30" height="30" fill="#131416"/>
<path d="M376.6 614.4C382.04 614.4 386.12 611.6 386.12 606.76C386.12 601.64 382.28 599.96 378 598.92L375 598.2C372.08 597.48 370.24 596.64 370.24 594.28C370.24 592.24 372.08 591.04 374.64 591.04C377.92 591.04 380.8 592.48 382.28 595.8L385.68 592.56C383.76 588.88 379.84 586.84 374.92 586.84C369.88 586.84 365.52 589.56 365.52 594.6C365.52 599.68 369.56 601.4 373.36 602.2L375.88 602.76C379.36 603.52 381.52 604.24 381.52 606.84C381.52 609.28 379.36 610.24 376.68 610.24C373.4 610.24 369.36 608.72 367.92 604.8L364.72 608.04C366.8 612.56 371.48 614.4 376.6 614.4ZM395.766 592.12C395.246 591.44 394.966 590.8 394.966 590.32C394.966 589.96 395.166 589.76 395.486 589.76C395.966 589.76 396.566 590.2 397.206 590.68C398.126 591.36 399.206 592.16 400.566 592.16C401.886 592.16 402.886 591.32 402.886 589.64C402.886 588.84 402.646 587.96 402.206 587.28H399.566C400.126 587.96 400.406 588.56 400.406 589C400.406 589.32 400.206 589.56 399.886 589.56C399.366 589.56 398.806 589.12 398.206 588.64C397.326 588 396.366 587.2 394.966 587.2C393.486 587.2 392.366 588.08 392.366 589.76C392.366 590.52 392.606 591.44 393.046 592.12H395.766ZM394.246 614.4C398.326 614.4 400.206 611.36 400.806 608.8V610.24C400.806 613.04 402.446 614 404.526 614H407.286V610.16H406.046C405.326 610.16 405.006 609.88 405.006 609V601.68C405.006 596.88 402.286 594.12 397.446 594.12C393.126 594.12 390.086 596.36 388.566 598.44L391.246 601.64C392.366 599.6 394.406 598.08 397.006 598.08C399.686 598.08 400.566 599.4 400.726 601.36L394.206 604.12C391.046 605.36 389.126 607.04 389.126 609.8C389.126 612.6 391.046 614.4 394.246 614.4ZM393.446 609.12C393.446 608.12 394.126 607.44 395.806 606.68L400.806 604.44V606.52C400.806 609.16 398.806 610.92 395.846 610.92C394.206 610.92 393.446 610.24 393.446 609.12ZM418.833 614.4C424.513 614.4 428.353 610.32 428.353 604.28C428.353 598.2 424.513 594.12 418.833 594.12C413.233 594.12 409.393 598.2 409.393 604.28C409.393 610.32 413.233 614.4 418.833 614.4ZM418.873 610.68C415.993 610.68 413.993 608.76 413.993 604.28C413.993 599.76 415.993 597.84 418.873 597.84C421.793 597.84 423.793 599.76 423.793 604.28C423.793 608.76 421.793 610.68 418.873 610.68ZM445.394 614V605.52H451.834C457.514 605.52 461.874 602.6 461.874 596.48C461.874 590.08 457.474 587.2 451.834 587.2H440.874V614H445.394ZM451.394 591.2C454.474 591.2 457.194 592.32 457.194 596.48C457.194 600.36 454.474 601.52 451.394 601.52H445.394V591.2H451.394ZM469.089 614.4C473.169 614.4 475.049 611.36 475.649 608.8V610.24C475.649 613.04 477.289 614 479.369 614H482.129V610.16H480.889C480.169 610.16 479.849 609.88 479.849 609V601.68C479.849 596.88 477.129 594.12 472.289 594.12C467.969 594.12 464.929 596.36 463.409 598.44L466.089 601.64C467.209 599.6 469.249 598.08 471.849 598.08C474.529 598.08 475.409 599.4 475.569 601.36L469.049 604.12C465.889 605.36 463.969 607.04 463.969 609.8C463.969 612.6 465.889 614.4 469.089 614.4ZM468.289 609.12C468.289 608.12 468.969 607.44 470.649 606.68L475.649 604.44V606.52C475.649 609.16 473.649 610.92 470.689 610.92C469.049 610.92 468.289 610.24 468.289 609.12ZM491.515 614.4C495.395 614.4 497.395 611.76 498.115 608.68V614H502.635V594.52H498.115V605.44C498.115 608.64 496.995 610.76 493.715 610.76C490.715 610.76 489.915 609.12 489.915 606.72V594.52H485.435V608.08C485.435 612.12 487.755 614.4 491.515 614.4ZM511.832 614V587.2H507.352V614H511.832ZM524.771 614.4C530.451 614.4 534.291 610.32 534.291 604.28C534.291 598.2 530.451 594.12 524.771 594.12C519.171 594.12 515.331 598.2 515.331 604.28C515.331 610.32 519.171 614.4 524.771 614.4ZM524.811 610.68C521.931 610.68 519.931 608.76 519.931 604.28C519.931 599.76 521.931 597.84 524.811 597.84C527.731 597.84 529.731 599.76 529.731 604.28C529.731 608.76 527.731 610.68 524.811 610.68Z" fill="#131416"/>
<path d="M363 633H536" stroke="#131416" stroke-width="2"/>
<path d="M485.6 460C491.36 460 494.92 457.64 494.92 452.88C494.92 449.28 492.76 446.56 486.68 446.08C491 445.72 493.8 443.6 493.8 440.04C493.8 436.08 491.24 433.2 485.8 433.2H473.64V460H485.6ZM484.44 437.2C487.24 437.2 489.12 438.08 489.12 440.8C489.12 443.52 487.28 444.36 484.6 444.36H478.16V437.2H484.44ZM485.04 448.16C488.16 448.16 490.28 449.36 490.28 452.08C490.28 454.8 488.6 456 484.92 456H478.16V448.16H485.04ZM503.144 460.4C507.224 460.4 509.104 457.36 509.704 454.8V456.24C509.704 459.04 511.344 460 513.424 460H516.184V456.16H514.944C514.224 456.16 513.904 455.88 513.904 455V447.68C513.904 442.88 511.184 440.12 506.344 440.12C502.024 440.12 498.984 442.36 497.464 444.44L500.144 447.64C501.264 445.6 503.304 444.08 505.904 444.08C508.584 444.08 509.464 445.4 509.624 447.36L503.104 450.12C499.944 451.36 498.024 453.04 498.024 455.8C498.024 458.6 499.944 460.4 503.144 460.4ZM502.344 455.12C502.344 454.12 503.024 453.44 504.704 452.68L509.704 450.44V452.52C509.704 455.16 507.704 456.92 504.744 456.92C503.104 456.92 502.344 456.24 502.344 455.12ZM524.09 460V449.08C524.09 445.88 525.21 443.76 528.49 443.76C531.49 443.76 532.29 445.4 532.29 447.8V460H536.81V446.44C536.81 442.4 534.49 440.12 530.69 440.12C526.81 440.12 524.81 442.76 524.09 445.84V433.2H519.61V460H524.09ZM545.887 437.76V433.2H541.407V437.76H545.887ZM545.887 460V440.52H541.407V460H545.887ZM554.746 460.4C558.826 460.4 560.706 457.36 561.306 454.8V456.24C561.306 459.04 562.946 460 565.026 460H567.786V456.16H566.546C565.826 456.16 565.506 455.88 565.506 455V447.68C565.506 442.88 562.786 440.12 557.946 440.12C553.626 440.12 550.586 442.36 549.066 444.44L551.746 447.64C552.866 445.6 554.906 444.08 557.506 444.08C560.186 444.08 561.066 445.4 561.226 447.36L554.706 450.12C551.546 451.36 549.626 453.04 549.626 455.8C549.626 458.6 551.546 460.4 554.746 460.4ZM553.946 455.12C553.946 454.12 554.626 453.44 556.306 452.68L561.306 450.44V452.52C561.306 455.16 559.306 456.92 556.346 456.92C554.706 456.92 553.946 456.24 553.946 455.12Z" fill="#131416"/>
<path d="M471 479H569" stroke="#131416" stroke-width="2"/>
</svg>
