<svg width="104" height="104" viewBox="0 0 104 104" fill="none" xmlns="http://www.w3.org/2000/svg">
<path d="M24.6399 56.4998V54.8998H18.8639V51.8278H23.6479V50.2278H18.8639V47.3798H24.6399V45.7798H17.0559V56.4998H24.6399ZM27.8483 56.4998V51.4598L27.5923 47.9238L28.8563 50.9958L30.7123 54.6918H32.5363L34.3923 50.9958L35.6243 47.9238L35.4003 51.4598V56.4998H37.2083V45.7798H35.0003L32.6963 50.4838L31.6243 53.2198L30.5683 50.4838L28.2643 45.7798H26.0403V56.4998H27.8483ZM47.4337 56.4998C49.7377 56.4998 51.1617 55.5558 51.1617 53.6518C51.1617 52.2118 50.2977 51.1238 47.8657 50.9318C49.5937 50.7878 50.7137 49.9398 50.7137 48.5158C50.7137 46.9318 49.6897 45.7798 47.5137 45.7798H42.6496V56.4998H47.4337ZM46.9697 47.3798C48.0897 47.3798 48.8417 47.7318 48.8417 48.8198C48.8417 49.9078 48.1057 50.2438 47.0337 50.2438H44.4577V47.3798H46.9697ZM47.2097 51.7638C48.4577 51.7638 49.3057 52.2438 49.3057 53.3318C49.3057 54.4198 48.6337 54.8998 47.1617 54.8998H44.4577V51.7638H47.2097ZM54.692 56.4998V52.3398H56.004C57.012 52.3398 57.556 52.5958 57.956 53.3158L59.812 56.4998H61.892L60.068 53.4118C59.684 52.7398 59.252 52.3398 58.612 52.1478C60.292 51.9558 61.524 50.8998 61.524 49.1078C61.524 46.8998 59.892 45.7798 57.716 45.7798H52.884V56.4998H54.692ZM57.54 47.3798C58.676 47.3798 59.652 47.7958 59.652 49.1558C59.652 50.4518 58.676 50.8678 57.54 50.8678H54.692V47.3798H57.54ZM70.5618 56.4998V54.8998H64.7858V51.8278H69.5698V50.2278H64.7858V47.3798H70.5618V45.7798H62.9778V56.4998H70.5618ZM76.7983 56.4998L80.7183 45.7798H78.7503L76.6223 52.0358L75.8063 55.1238L75.0063 52.0358L72.8783 45.7798H70.8143L74.7343 56.4998H76.7983ZM89.0149 56.4998V54.8998H83.2389V51.8278H88.0229V50.2278H83.2389V47.3798H89.0149V45.7798H81.4309V56.4998H89.0149Z" fill="#131416"/>
</svg>
